<svg xmlns="http://www.w3.org/2000/svg" width="118" height="62" fill="none">
  <path fill="#174430" d="M117.61 31c0 17.12-26.33 31-58.8 31C26.33 62 0 48.12 0 31 0 13.88 26.33 0 58.8 0c32.48 0 58.81 13.88 58.81 31z"/>
  <path fill="#D4C988" d="M29.2 21L25 41h5.31l1.86-8.27h7.09L37.3 41h5.5l4.28-20h-5.3l-1.5 7.1H33.2l1.4-7.1h-5.4zM50.62 21l-4.38 20h5.13l3.07-15.82L55.65 41h4.1l8.11-15.82L64.13 41h5.04l4.28-20H66l-7.08 14.1-.94-14.1h-7.36z"/>
  <path fill="#D4C988" fill-rule="evenodd" d="M72.9 41l4.37-20h9.04c2.98.21 8.66 2.44 7.55 9.64-1.4 9-8.11 10.36-11.1 10.36H72.9zm6.33-4.64l2.33-10.9a13.17 13.17 0 0 1 4 .06c1.59.2 3 .38 3.08 5.12a5.48 5.48 0 0 1-4.94 5.72c-1.68.19-4.47 0-4.47 0z" clip-rule="evenodd"/>
</svg>