<svg width="136" height="120" viewBox="0 0 136 120" fill="none" xmlns="http://www.w3.org/2000/svg">
<path d="M48.2253 10.1975C43.3169 16.5103 38.5311 25.3724 33.8681 36.784C29.2051 47.9527 26.9963 58.2716 27.2418 67.7408C29.4506 67.0124 32.0275 66.6482 34.9725 66.6482C42.0897 66.6482 48.1026 68.7119 53.011 72.8395C57.9194 76.7243 60.3736 82.6728 60.3736 90.6852C60.3736 98.4547 57.7967 105.01 52.6429 110.352C47.7344 115.451 41.2308 118 33.1319 118C22.5788 118 14.3571 114.479 8.46703 107.438C2.82234 100.154 0 90.928 0 79.7593C0 67.8621 2.82234 54.9938 8.46703 41.1543C14.3571 27.3148 22.8242 13.5967 33.8681 0L48.2253 10.1975ZM121.852 10.1975C116.943 16.5103 112.158 25.3724 107.495 36.784C102.832 47.9527 100.623 58.2716 100.868 67.7408C103.077 67.0124 105.654 66.6482 108.599 66.6482C115.716 66.6482 121.729 68.7119 126.637 72.8395C131.546 76.7243 134 82.6728 134 90.6852C134 98.4547 131.423 105.01 126.269 110.352C121.361 115.451 114.857 118 106.758 118C96.2051 118 87.9835 114.479 82.0934 107.438C76.4487 100.154 73.6264 90.928 73.6264 79.7593C73.6264 67.8621 76.4487 54.9938 82.0934 41.1543C87.9835 27.3148 96.4506 13.5967 107.495 0L121.852 10.1975Z" fill="#333333"/>
</svg>
