<svg xmlns="http://www.w3.org/2000/svg" xmlns:xlink="http://www.w3.org/1999/xlink"><symbol id="arrow"><path d="M15.98.13a.38.38 0 00-.57 0 .47.47 0 000 .63l2.92 3.19H.4c-.22 0-.4.2-.4.44 0 .25.18.45.4.45h17.93L15.4 8.03a.48.48 0 000 .63c.16.17.42.17.57 0L19.6 4.7a.46.46 0 000-.63L16 .13z"/></symbol><symbol id="call" viewBox="0 0 17 17"><path d="M16.62 13.44l-2.63-2.63a1.37 1.37 0 00-1.93.04l-1.32 1.32-.26-.15c-.84-.46-1.98-1.1-3.18-2.3A13.05 13.05 0 015 6.53c-.06-.08-.1-.17-.15-.25l.89-.89.43-.43c.55-.55.56-1.41.04-1.93L3.58.4a1.37 1.37 0 00-1.93.04l-.74.74.02.02a4.28 4.28 0 00-.88 2.17c-.34 2.87.97 5.5 4.53 9.06 4.93 4.93 8.9 4.56 9.07 4.54a4.44 4.44 0 002.17-.88l.01.01.75-.73c.54-.55.56-1.41.04-1.93z"/></symbol><symbol id="home" viewBox="0 0 18 18"><path d="M17.8 7.31L9.29 1.07a.47.47 0 00-.56 0L.2 7.3a.47.47 0 10.55.76L9 2.02l8.26 6.05a.47.47 0 00.65-.1c.15-.21.1-.5-.1-.66z"/><path d="M15.55 8.18c-.26 0-.47.2-.47.46v7.45h-3.74v-4.07a2.34 2.34 0 00-4.68 0v4.07H2.92V8.64a.47.47 0 00-.94 0v7.92c0 .25.21.46.47.46h4.68a.47.47 0 00.47-.46v-4.54a1.4 1.4 0 012.8 0v4.57c.02.24.22.43.47.43h4.68c.26 0 .47-.2.47-.46V8.64a.46.46 0 00-.47-.46z"/></symbol><symbol id="logo" viewBox="0 0 57 30"><path d="M14.1 10.16l-2.02 9.68h2.56l.9-4h3.42l-.94 4h2.66l2.06-9.68h-2.56l-.72 3.44h-3.42l.67-3.44zm10.35 0l-2.11 9.68h2.47l1.49-7.66.58 7.66h1.98l3.92-7.66-1.8 7.66h2.43l2.07-9.68h-3.6l-3.42 6.82-.45-6.82zm0 0"/><path fill-rule="evenodd" d="M35.21 19.84l2.11-9.68h4.37c1.44.1 4.19 1.18 3.65 4.66-.68 4.36-3.92 5.02-5.36 5.02zm3.06-2.25l1.13-5.27c.64-.09 1.3-.08 1.93.03.77.1 1.45.18 1.49 2.47a2.65 2.65 0 01-2.39 2.77c-.8.1-2.16 0-2.16 0zm0 0"/></symbol></svg>